# xmcd CD database file
#
# Track frame offsets:
#	150
#	20353
#	45166
#	68420
#	93692
#	118431
#	142028
#	160864
#	183688
#
# Disc length: 2755 seconds
#
# Revision: 2
# Processed by: cddbd v1.5.2PL0 Copyright (c) Steve Scherf et al.
# Submitted via: CDex 1.70beta2
#
DISCID=790ac109
DTITLE=Rogério Valente - O Tempo Todo
DYEAR=2008
DGENRE=Jazz
TTITLE0=Sensorial
TTITLE1=No Mundo Da Lua
TTITLE2=Linha Imaginária
TTITLE3=Sonho Lúcido
TTITLE4=Tempo Livre
TTITLE5=De Frente Para o Mar
TTITLE6=Como Nos Velhos Tempos
TTITLE7=Fora de Foco
TTITLE8=Euforia
EXTD=YEAR: 2008
EXTT0=
EXTT1=
EXTT2=
EXTT3=
EXTT4=
EXTT5=
EXTT6=
EXTT7=
EXTT8=
PLAYORDER=
